<mxfile host="app.diagrams.net" modified="2024-07-25T07:09:51.502Z" agent="Mozilla/5.0 (Windows NT 10.0; Win64; x64) AppleWebKit/537.36 (KHTML, like Gecko) Chrome/109.0.0.0 Safari/537.36 SLBrowser/9.0.3.5211 SLBChan/112" version="24.0.4" etag="xRDO2WRRdMliPWpFAsga" type="github">
  <diagram name="第 1 页" id="5B-AUKVf2gyLOer0TMxy">
    <mxGraphModel>
      <root>
        <mxCell id="0" />
        <mxCell id="1" parent="0" />
      </root>
    </mxGraphModel>
  </diagram>
</mxfile>
